HIERARCHY
ROOT Hips
{
	OFFSET -0.001795 -0.223333 0.028219
	CHANNELS 6 Xposition Yposition Zposition Zrotation Yrotation Xrotation 
	JOINT LeftUpLeg
	{
		OFFSET 0.069520 -0.091406 -0.006815
		CHANNELS 3 Zrotation Yrotation Xrotation
		JOINT LeftLeg
		{
			OFFSET 0.034277 -0.375199 -0.004496
			CHANNELS 3 Zrotation Yrotation Xrotation
			JOINT LeftFoot
			{
				OFFSET -0.013596 -0.397961 -0.043693
				CHANNELS 3 Zrotation Yrotation Xrotation
				JOINT LeftToe
				{
					OFFSET 0.026358 -0.055791 0.119288
					CHANNELS 3 Zrotation Yrotation Xrotation
					End Site
					{
						OFFSET 0.000000 0.000000 0.000000
					}
				}
			}
		}
	}
	JOINT RightUpLeg
	{
		OFFSET -0.067670 -0.090522 -0.004320
		CHANNELS 3 Zrotation Yrotation Xrotation
		JOINT RightLeg
		{
			OFFSET -0.038290 -0.382569 -0.008850
			CHANNELS 3 Zrotation Yrotation Xrotation
			JOINT RightFoot
			{
				OFFSET 0.015774 -0.398415 -0.042312
				CHANNELS 3 Zrotation Yrotation Xrotation
				JOINT RightToe
				{
					OFFSET -0.025372 -0.048144 0.123348
					CHANNELS 3 Zrotation Yrotation Xrotation
					End Site
					{
						OFFSET 0.000000 0.000000 0.000000
					}
				}
			}
		}
	}
	JOINT Spine
	{
		OFFSET -0.002533 0.108963 -0.026696
		CHANNELS 3 Zrotation Yrotation Xrotation
		JOINT Spine1
		{
			OFFSET 0.005487 0.135180 0.001092
			CHANNELS 3 Zrotation Yrotation Xrotation
			JOINT Spine2
			{
				OFFSET 0.001457 0.052922 0.025425
				CHANNELS 3 Zrotation Yrotation Xrotation
				JOINT Neck
				{
					OFFSET -0.002778 0.213870 -0.042857
					CHANNELS 3 Zrotation Yrotation Xrotation
					JOINT Head
					{
						OFFSET 0.005152 0.064970 0.051349
						CHANNELS 3 Zrotation Yrotation Xrotation
						End Site
						{
							OFFSET 0.000000 0.000000 0.000000
						}
					}
				}
				JOINT LeftShoulder
				{
					OFFSET 0.078845 0.121749 -0.034090
					CHANNELS 3 Zrotation Yrotation Xrotation
					JOINT LeftArm
					{
						OFFSET 0.090977 0.030469 -0.008868
						CHANNELS 3 Zrotation Yrotation Xrotation
						JOINT LeftForeArm
						{
							OFFSET 0.259612 -0.012772 -0.027456
							CHANNELS 3 Zrotation Yrotation Xrotation
							JOINT LeftHand
							{
								OFFSET 0.249234 0.008986 -0.001171
								CHANNELS 3 Zrotation Yrotation Xrotation
								End Site
								{
									OFFSET 0.000000 0.000000 0.000000
								}
							}
						}
					}
				}
				JOINT RightShoulder
				{
					OFFSET -0.081759 0.118833 -0.038615
					CHANNELS 3 Zrotation Yrotation Xrotation
					JOINT RightArm
					{
						OFFSET -0.096012 0.032551 -0.009143
						CHANNELS 3 Zrotation Yrotation Xrotation
						JOINT RightForeArm
						{
							OFFSET -0.253742 -0.013329 -0.021401
							CHANNELS 3 Zrotation Yrotation Xrotation
							JOINT RightHand
							{
								OFFSET -0.255298 0.007772 -0.005559
								CHANNELS 3 Zrotation Yrotation Xrotation
								End Site
								{
									OFFSET 0.000000 0.000000 0.000000
								}
							}
						}
					}
				}
			}
		}
	}
}
MOTION
Frames: 8
Frame Time: 0.050000
0.015814 0.865663 -0.184860 -0.462307 5.578405 1.659405 9.203978 -0.999122 -29.547057 -8.637006 1.792868 45.290270 8.955569 17.793198 -6.707352 0.000000 0.000000 0.000000 -8.798265 0.373334 -28.808381 12.967285 -6.623286 45.553033 -14.475237 -32.561205 4.266268 0.000000 0.000000 0.000000 -3.667464 -0.672470 28.912865 6.722468 -1.721290 -14.514702 2.101836 2.280263 25.490970 -0.091662 2.873122 -36.264805 0.000000 0.000000 0.000000 -27.469163 -12.059858 3.983805 -62.815436 -29.227650 6.697535 84.200769 -68.672023 -57.467126 0.000000 0.000000 0.000000 7.411337 23.409814 10.037848 56.854376 37.745616 11.950282 -68.348159 58.162169 -33.819514 0.000000 0.000000 0.000000 
0.015243 0.865069 -0.186108 -0.353795 5.578805 1.661850 9.215815 -1.007066 -29.795554 -8.808719 1.893309 45.815940 8.720485 17.261264 -6.718766 0.000000 0.000000 0.000000 -9.062450 0.302283 -29.266875 12.949723 -6.676691 46.042283 -14.144473 -32.049022 3.810963 0.000000 0.000000 0.000000 -3.223945 -0.799323 29.122030 6.348758 -1.580945 -14.675432 2.328642 2.333232 25.489969 -1.006853 3.295755 -36.310559 0.000000 0.000000 0.000000 -27.701920 -12.373437 4.163077 -62.908965 -29.507362 6.903809 84.776761 -71.215496 -60.358952 0.000000 0.000000 0.000000 7.365665 23.378118 10.019198 56.481959 36.692884 11.252392 -68.356497 60.354108 -35.442237 0.000000 0.000000 0.000000 
0.014640 0.864437 -0.187078 -0.215011 5.765707 1.845250 9.365298 -1.018668 -30.403599 -9.001106 1.975714 46.659400 8.391919 16.510115 -6.794843 0.000000 0.000000 0.000000 -9.420090 0.189665 -29.675641 12.943292 -6.798970 46.599931 -14.051577 -31.948845 3.527495 0.000000 0.000000 0.000000 -3.098146 -0.849412 29.202079 6.488652 -1.614693 -14.756910 2.376876 2.483089 25.218115 -1.951822 3.746843 -35.901797 0.000000 0.000000 0.000000 -27.913030 -12.262277 3.974382 -63.067951 -29.097119 6.756048 91.894305 -74.455321 -70.200002 0.000000 0.000000 0.000000 7.665092 22.907562 9.929808 56.750264 35.098063 10.482879 -70.196398 63.087846 -38.673193 0.000000 0.000000 0.000000 
0.014006 0.864536 -0.187788 -0.032363 5.720345 1.850745 9.580724 -0.969571 -30.536552 -8.908790 1.947715 47.297113 8.015588 15.664271 -6.689695 0.000000 0.000000 0.000000 -9.698713 0.119565 -29.784828 12.701177 -6.663274 46.771668 -13.627495 -31.265918 2.975300 0.000000 0.000000 0.000000 -3.073252 -0.855956 29.328831 6.652112 -1.619410 -15.320214 2.155749 2.720658 25.388168 -2.521359 4.039085 -35.757145 0.000000 0.000000 0.000000 -27.397090 -12.509777 4.058392 -63.504589 -29.421717 7.005656 97.463025 -75.833581 -77.007576 0.000000 0.000000 0.000000 8.704517 22.462239 10.022057 56.795093 33.809657 9.728875 -72.990127 64.216538 -41.436367 0.000000 0.000000 0.000000 
0.013433 0.864156 -0.188274 0.191198 5.531481 2.163551 9.522364 -0.995814 -31.221363 -8.716161 1.903483 47.476854 8.046026 15.822001 -6.314285 0.000000 0.000000 0.000000 -9.908153 0.079496 -30.436864 12.371196 -6.475037 47.233152 -13.313675 -30.682002 2.832172 0.000000 0.000000 0.000000 -3.229114 -0.780170 29.047449 6.546857 -1.580981 -15.371202 1.996408 2.501013 25.167230 -2.566923 4.008375 -35.672257 0.000000 0.000000 0.000000 -27.679833 -12.131094 3.919508 -64.305299 -30.094748 7.606181 100.184513 -76.192473 -79.890512 0.000000 0.000000 0.000000 9.018397 21.799018 9.779297 58.605689 32.995563 9.753606 -75.829966 64.514850 -43.696639 0.000000 0.000000 0.000000 
0.013026 0.865604 -0.188383 0.362849 5.262338 2.207339 9.258089 -1.040046 -31.373883 -8.464557 1.831101 47.856921 7.885508 15.593534 -5.520014 0.000000 0.000000 0.000000 -10.240110 0.020125 -30.450964 12.395520 -6.406510 47.163007 -12.609060 -29.281801 2.711384 0.000000 0.000000 0.000000 -3.466006 -0.679666 28.740777 6.852162 -1.633358 -15.957758 1.426998 2.539832 25.222122 -2.200115 3.830495 -35.195051 0.000000 0.000000 0.000000 -27.318635 -12.403076 4.125260 -65.553167 -32.212338 9.184239 92.900925 -74.755597 -71.239237 0.000000 0.000000 0.000000 10.264399 21.396589 9.886971 59.452346 33.021315 9.911070 -78.320156 61.735711 -43.018824 0.000000 0.000000 0.000000 
0.012633 0.868673 -0.187903 0.527276 4.852999 2.117240 9.185960 -0.991622 -30.828129 -8.163632 1.750503 47.094015 7.766629 15.391701 -5.095161 0.000000 0.000000 0.000000 -10.290071 0.061154 -29.917763 12.102337 -6.081136 46.845815 -12.409862 -28.828932 2.980166 0.000000 0.000000 0.000000 -3.574954 -0.584662 27.895776 6.674307 -1.551258 -16.354110 1.137899 1.811026 25.624524 -1.779134 3.501041 -34.961543 0.000000 0.000000 0.000000 -27.458861 -12.493413 4.566713 -66.436345 -34.937750 11.103751 90.545928 -71.428860 -65.149366 0.000000 0.000000 0.000000 10.758713 21.462233 9.886790 59.637890 33.849739 10.282478 -82.316720 56.286106 -41.194428 0.000000 0.000000 0.000000 
0.012349 0.874618 -0.186554 0.654273 4.036000 2.372404 9.294283 -0.864276 -30.178191 -7.915417 1.795369 46.175420 7.554315 15.255713 -3.081204 0.000000 0.000000 0.000000 -10.121379 0.202575 -29.453404 11.791608 -5.504960 45.277482 -12.055627 -28.001738 3.646838 0.000000 0.000000 0.000000 -3.350763 -0.540192 26.793060 6.155123 -1.298312 -17.589932 0.479650 0.727486 26.332820 -1.957297 3.370568 -35.123514 0.000000 0.000000 0.000000 -26.593360 -12.966578 5.450773 -66.299584 -39.706835 14.140444 90.076128 -65.761889 -58.426662 0.000000 0.000000 0.000000 11.480787 21.301257 9.741750 58.464792 35.358437 10.563935 -86.186874 51.615544 -39.896478 0.000000 0.000000 0.000000 
